P2
2 3
255
255 0 255 0 255 0