P2
2 3
4
4 0 4 0 4 0